<?xml version="1.0" encoding="UTF-8" standalone="no"?>
<svg
   xmlns:dc="http://purl.org/dc/elements/1.1/"
   xmlns:cc="http://creativecommons.org/ns#"
   xmlns:rdf="http://www.w3.org/1999/02/22-rdf-syntax-ns#"
   xmlns:svg="http://www.w3.org/2000/svg"
   xmlns="http://www.w3.org/2000/svg"
   xmlns:sodipodi="http://sodipodi.sourceforge.net/DTD/sodipodi-0.dtd"
   xmlns:inkscape="http://www.inkscape.org/namespaces/inkscape"
   viewBox="0 0 621.15119 438.03079"
   height="438.03079"
   width="621.15118"
   xml:space="preserve"
   id="svg2"
   version="1.1"
   sodipodi:docname="wasp-bee-publicdomainvectors.org.svg"
   inkscape:version="0.92.2 5c3e80d, 2017-08-06"><sodipodi:namedview
     pagecolor="#ffffff"
     bordercolor="#666666"
     borderopacity="1"
     objecttolerance="10"
     gridtolerance="10"
     guidetolerance="10"
     inkscape:pageopacity="0"
     inkscape:pageshadow="2"
     inkscape:window-width="1464"
     inkscape:window-height="812"
     id="namedview126"
     showgrid="false"
     inkscape:zoom="1.1033876"
     inkscape:cx="310.57385"
     inkscape:cy="196.17919"
     inkscape:window-x="0"
     inkscape:window-y="0"
     inkscape:window-maximized="0"
     inkscape:current-layer="g12" /><metadata
     id="metadata8"><rdf:RDF><cc:Work
         rdf:about=""><dc:format>image/svg+xml</dc:format><dc:type
           rdf:resource="http://purl.org/dc/dcmitype/StillImage" /></cc:Work></rdf:RDF></metadata><defs
     id="defs6" /><g
     transform="matrix(1.3333333,0,0,-1.3333333,5.2083332e-4,560.09332)"
     id="g10"><g
       transform="scale(0.1)"
       id="g12"><path
         id="path64"
         style="fill:#f9a727;fill-opacity:1;fill-rule:nonzero;stroke:none"
         d="m 1865.97,2393.65 1.7,-68.96 h 912.64 l -3.15,127.01 -102.22,83.63 h -663.99 l -144.98,-141.68"
         inkscape:connector-curvature="0" /><path
         id="path66"
         style="fill:#f9a727;fill-opacity:1;fill-rule:nonzero;stroke:none"
         d="m 1877.14,1942.9 h 912.62 l -5.21,210.64 h -912.62 l 5.21,-210.64"
         inkscape:connector-curvature="0" /><path
         id="path68"
         style="fill:#f9a727;fill-opacity:1;fill-rule:nonzero;stroke:none"
         d="m 1886.77,1554.53 h 902.11 l 10.26,10.03 -4.97,200.61 h -912.61 l 5.21,-210.64"
         inkscape:connector-curvature="0" /><path
         id="path70"
         style="fill:#f9a727;fill-opacity:1;fill-rule:nonzero;stroke:none"
         d="m 2069.68,1131.05 h 27.75 l -27.75,22.69 z"
         inkscape:connector-curvature="0" /><path
         id="path72"
         style="fill:#f9a727;fill-opacity:1;fill-rule:nonzero;stroke:none"
         d="m 2609.02,1131.05 v 26.83 l -27.46,-26.83 z"
         inkscape:connector-curvature="0" /><path
         id="path74"
         style="fill:#f9a727;fill-opacity:1;fill-rule:nonzero;stroke:none"
         d="m 2346.93,1131.05 h 8.61 l 215.55,210.63 h -481.64 l 257.48,-210.63"
         inkscape:connector-curvature="0" /><path
         id="path76"
         style="fill:#f9a727;fill-opacity:1;fill-rule:nonzero;stroke:none"
         d="m 2182.89,3365.02 -149.65,-259.21 h 598.61 l -149.65,259.21 h -299.31"
         inkscape:connector-curvature="0" /><path
         id="path78"
         style="fill:#100f0d;fill-opacity:1;fill-rule:nonzero;stroke:none"
         d="m 4436.93,3091.02 -341.62,257.69 6.41,290.84 432.04,-119.84 z m -344.55,-94.93 -33.77,-5.12 0.17,2.03 -521.5,45.15 513.48,245.22 323.96,-244.37 z m -87.46,-83.56 -66.68,-334.93 -9.96,-0.95 4.1,8.55 -862.27,414.1 935.96,-81.02 z m -505.88,-376.82 -437.52,380.09 732.79,-351.92 z m 523.09,1078.1 -5.69,-259.29 -634.34,-302.94 -464.6,40.22 -0.83,18.75 z m -1988.89,-508 149.65,259.21 h 299.31 l 149.65,-259.21 z m 756.52,-1162.92 h -912.62 l -5.21,210.65 h 912.62 z m 9.38,-378.33 -10.26,-10.03 h -902.11 l -5.22,210.64 h 912.62 z m -452.21,-433.51 -257.48,210.64 h 481.64 l -215.55,-210.64 z m 430.23,1320.65 3.15,-127.02 h -912.63 l -1.71,68.97 144.98,141.68 h 663.99 z m -1573.36,85.64 -323.784,16.95 780.264,415.22 z m -522.788,359.92 893.198,115.93 -815.593,-434.02 -76.375,313.01 z m -391.067,107.34 289.758,250.33 565.217,-217.81 -525.705,-68.23 -27.93,3.03 z m -162.019,471.58 384.793,124.69 18.41,-283.55 -291.731,-252.01 z M 1761.03,3136.56 v -19.48 l -451.78,-58.63 -699.664,269.6 -18.281,281.74 z m 2317.62,618.68 -1264.26,-575.53 -51.48,89.17 388.78,193.53 36.25,18.04 -16.85,31.46 -318.48,594.45 236.58,-587.21 -397.14,-127.56 -90.14,156.1 h -75.63 c 0.06,1.56 0.3,3.07 0.3,4.63 0,41.38 -20.49,78.86 -53.67,106.61 l 329.65,541.77 -372.51,-514.77 c -28.67,13.32 -61.92,21.09 -97.5,21.09 -28.63,0 -55.72,-5.08 -80.19,-13.95 l -367.35,507.63 322.58,-530.13 c -42.2,-28.37 -69.06,-70.79 -69.06,-118.25 0,-1.56 0.23,-3.07 0.29,-4.63 h -75.65 l -82.76,-143.35 -359.15,115.36 205.38,586.66 -286.22,-595.96 -14.73,-30.67 34.79,-17.32 352.22,-175.34 -46.36,-80.28 v 0.77 L 572.555,3730.97 -0.00390625,3545.44 172.016,2911.45 l 407.91,-44.23 99.523,-407.91 563.961,-29.5 599,567.11 31,-53.7 -480.29,-505.24 -21.13,-22.22 5.32,-24.59 214.55,-991.33 -106.94,977.78 479,408.82 28.13,-48.71 -285.73,-279.21 25.49,-1028.4 337.87,-276.38 27.75,-22.69 263.54,-215.581 220.59,215.581 27.46,26.83 349.74,341.8 -25.46,1028.39 -258.99,211.86 33.09,57.31 503.86,-389.77 -136.13,-929.74 243.03,941.97 6.88,26.73 -23.91,22.99 -503.58,483.96 20.08,34.78 646.43,-561.59 562.19,53.62 81.97,411.78 405.64,61.64 144.77,640.77 -579.98,160.86"
         inkscape:connector-curvature="0" /></g></g></svg>